<svg width="30" height="30" viewBox="0 0 30 30" fill="none" xmlns="http://www.w3.org/2000/svg">
<g clip-path="url(#clip0_426_1646)">
<path d="M15.8787 15.8783V0C7.37362 0.446115 0.446603 7.37308 0.000488281 15.8783H15.8787ZM12.3633 13.2416H10.6055V11.4839H12.3633V13.2416ZM7.09004 7.96842H8.84778V9.72616H7.09004V7.96842ZM11.4844 7.60451L12.7272 8.84729L7.96891 13.6056L6.72613 12.3628L11.4844 7.60451Z" fill="#FF82AC"/>
<path d="M15.8787 17.6357H5.36572C5.79403 23.2368 10.2776 27.7204 15.8787 28.1487V17.6357H15.8787Z" fill="#FF82AC"/>
<path d="M17.6362 3.51562C17.6362 3.70441 17.6362 30.2064 17.6362 29.9989C24.4956 29.5434 29.999 23.6424 29.999 16.6695C29.999 9.69602 24.4973 3.96965 17.6362 3.51562ZM22.9095 15.8784C24.3633 15.8784 25.5461 17.0611 25.5461 18.515C25.5461 19.6593 24.8091 20.6257 23.7883 20.9897V22.9094H22.0306V20.9897C21.0098 20.6257 20.2728 19.6593 20.2728 18.515H22.0306C22.0306 18.9999 22.4246 19.3939 22.9095 19.3939C23.3944 19.3939 23.7883 18.9999 23.7883 18.515C23.7883 18.0301 23.3944 17.6361 22.9095 17.6361C21.4556 17.6361 20.2728 16.4534 20.2728 14.9995C20.2728 13.8552 21.0098 12.8888 22.0306 12.5248V10.6052H23.7883V12.5248C24.8091 12.8888 25.5461 13.8552 25.5461 14.9995H23.7883C23.7883 14.5146 23.3944 14.1207 22.9095 14.1207C22.4246 14.1207 22.0306 14.5146 22.0306 14.9995C22.0306 15.4844 22.4246 15.8784 22.9095 15.8784Z" fill="#FF82AC"/>
</g>
<defs>
<clipPath id="clip0_426_1646">
<rect width="30" height="30" fill="white"/>
</clipPath>
</defs>
</svg>
