<svg width="25" height="25" viewBox="0 0 25 25" fill="none" xmlns="http://www.w3.org/2000/svg">
<g clip-path="url(#clip0_436_1256)">
<path d="M4.81138 16.6678C5.06278 16.8174 5.27862 17.0121 5.45087 17.2371H8.70604V14.0806L7.16253 13.1236C6.81876 12.9105 6.71286 12.459 6.92598 12.1153C7.13914 11.7716 7.59042 11.6657 7.93433 11.8787L9.43839 12.8112L10.7494 11.9984C8.13451 8.41283 8.73504 3.33221 12.2157 0.464604C6.48227 -1.45611 0.467845 2.8135 0.440699 8.94559C0.42654 12.1976 2.15787 15.0882 4.81138 16.6678Z" fill="#B1B1B1"/>
<path d="M5.90887 18.7021H12.8418V20.3621H5.90887V18.7021Z" fill="#B1B1B1"/>
<path d="M10.1707 14.0805V17.2369H13.29C13.4557 17.0184 13.6623 16.8311 13.9027 16.6895C14.5684 16.2977 15.1795 15.8198 15.7211 15.2728C14.1912 14.9283 12.8173 14.1676 11.7248 13.1162C11.6831 13.1433 11.3829 13.3289 10.1707 14.0805Z" fill="#B1B1B1"/>
<path d="M17.5777 0.00195312C13.7374 0.00195312 10.5959 3.17534 10.5959 7.03254C10.5959 10.6607 13.3811 13.6651 16.9522 13.9857C21.085 14.3549 24.5595 11.0789 24.5595 7.03254C24.5595 3.18281 21.4275 0.00195312 17.5777 0.00195312ZM18.311 10.2069V10.3599C18.311 10.7644 17.9831 11.0923 17.5787 11.0923C17.1742 11.0923 16.8463 10.7644 16.8463 10.3599V10.2897C16.5089 10.2305 16.2006 10.1042 15.8112 9.84941C15.4727 9.628 15.3778 9.17414 15.5992 8.83564C15.8207 8.4971 16.2746 8.40228 16.613 8.62365C16.97 8.85722 17.0857 8.87543 17.5737 8.87206C18.0449 8.86894 18.2326 8.4991 18.2693 8.2811C18.3022 8.08537 18.2652 7.82514 17.9022 7.69688C17.2942 7.48191 16.6707 7.23526 16.229 6.8888C15.2232 6.09991 15.5268 4.29808 16.8464 3.81859V3.71254C16.8464 3.30809 17.1743 2.98019 17.5787 2.98019C17.9832 2.98019 18.3111 3.30809 18.3111 3.71254V3.75316C18.6719 3.85501 18.9625 4.03922 19.1622 4.24223C19.4458 4.53058 19.4419 4.99426 19.1535 5.27787C18.8653 5.56134 18.402 5.55758 18.1184 5.26972C18.0775 5.22983 17.8519 5.04171 17.3635 5.18882C17.1685 5.24755 17.1161 5.44978 17.1047 5.51037C17.0808 5.63682 17.1148 5.72207 17.1329 5.73632C17.4092 5.953 17.9236 6.15088 18.3904 6.31591C20.3206 6.99817 20.0855 9.56536 18.311 10.2069Z" fill="#B1B1B1"/>
<path d="M7.08063 22.705C7.08063 23.9703 8.11002 24.9997 9.37533 24.9997C10.6406 24.9997 11.67 23.9703 11.67 22.705V21.8262H7.08063V22.705Z" fill="#B1B1B1"/>
</g>
<defs>
<clipPath id="clip0_436_1256">
<rect width="25" height="25" fill="white"/>
</clipPath>
</defs>
</svg>
