<svg width="25" height="25" viewBox="0 0 25 25" fill="none" xmlns="http://www.w3.org/2000/svg">
<g clip-path="url(#clip0_436_1232)">
<path d="M5.20831 22.9163C5.20897 23.4687 5.42867 23.9982 5.81923 24.3888C6.20979 24.7793 6.73931 24.999 7.29165 24.9997H17.7083C18.2606 24.999 18.7902 24.7793 19.1807 24.3888C19.5713 23.9982 19.791 23.4687 19.7916 22.9163V22.0049H5.20831V22.9163Z" fill="#B1B1B1"/>
<path d="M19.7916 2.08333C19.791 1.531 19.5713 1.00148 19.1807 0.610917C18.7902 0.220358 18.2606 0.00065473 17.7083 0L7.29165 0C6.73931 0.00065473 6.20979 0.220358 5.81923 0.610917C5.42867 1.00148 5.20897 1.531 5.20831 2.08333V3.125H19.7916V2.08333Z" fill="#B1B1B1"/>
<path d="M24.7097 6.70052L21.5847 3.44531L20.0819 4.88802L21.3893 6.25H19.7916V8.33333H21.5017L20.1126 9.66459L21.554 11.1688L24.679 8.17396C24.7778 8.07926 24.857 7.96602 24.912 7.8407C24.9671 7.71538 24.9968 7.58045 24.9997 7.44361C25.0026 7.30677 24.9784 7.17071 24.9287 7.04321C24.8789 6.91571 24.8045 6.79926 24.7097 6.70052Z" fill="#B1B1B1"/>
<path d="M16.6666 6.25033H19.7916V4.16699H5.20831V16.667H8.33331V18.7503H5.20831V20.8337H19.7916V8.33366H16.6666V6.25033ZM15.625 10.417H11.9791C11.841 10.417 11.7085 10.4719 11.6109 10.5695C11.5132 10.6672 11.4583 10.7997 11.4583 10.9378C11.4583 11.076 11.5132 11.2084 11.6109 11.3061C11.7085 11.4038 11.841 11.4587 11.9791 11.4587H13.0208C13.6666 11.458 14.2896 11.6973 14.7689 12.1302C15.2482 12.5631 15.5495 13.1586 15.6144 13.8011C15.6793 14.4436 15.5032 15.0874 15.1201 15.6073C14.7371 16.1273 14.1745 16.4864 13.5416 16.6149V17.7087H11.4583V16.667H9.37498V14.5837H13.0208C13.1589 14.5837 13.2914 14.5288 13.3891 14.4311C13.4868 14.3334 13.5416 14.201 13.5416 14.0628C13.5416 13.9247 13.4868 13.7922 13.3891 13.6945C13.2914 13.5969 13.1589 13.542 13.0208 13.542H11.9791C11.3333 13.5426 10.7103 13.3033 10.2311 12.8704C9.75179 12.4376 9.45045 11.8421 9.38555 11.1995C9.32064 10.557 9.4968 9.91327 9.87983 9.39331C10.2629 8.87335 10.8254 8.51426 11.4583 8.38574V7.29199H13.5416V8.33366H15.625V10.417Z" fill="#B1B1B1"/>
<path d="M3.49828 16.6665L4.88734 15.3352L3.44593 13.8311L0.320931 16.8258C0.222115 16.9205 0.142929 17.0338 0.0879011 17.1591C0.0328728 17.2844 0.00308028 17.4194 0.000226477 17.5562C-0.00262733 17.693 0.0215135 17.8291 0.0712692 17.9566C0.121025 18.0841 0.19542 18.2005 0.290202 18.2993L3.4152 21.5545L4.91807 20.1118L3.61064 18.7498H5.2083V16.6665H3.49828Z" fill="#B1B1B1"/>
</g>
<defs>
<clipPath id="clip0_436_1232">
<rect width="25" height="25" fill="white"/>
</clipPath>
</defs>
</svg>
