<svg width="15" height="15" viewBox="0 0 15 15" fill="none" xmlns="http://www.w3.org/2000/svg">
<g clip-path="url(#clip0_436_1987)">
<path d="M14.5871 4.16284L13.2365 5.51343C13.0988 5.65112 12.8761 5.65112 12.7384 5.51343L9.48649 2.26147C9.34879 2.12378 9.34879 1.90112 9.48649 1.76343L10.8371 0.412842C11.3849 -0.13501 12.2756 -0.13501 12.8263 0.412842L14.5871 2.17358C15.1379 2.72144 15.1379 3.61206 14.5871 4.16284ZM8.32633 2.92358L0.632973 10.6169L0.011879 14.1765C-0.0730819 14.657 0.345863 15.073 0.826332 14.991L4.3859 14.3669L12.0793 6.67358C12.217 6.53589 12.217 6.31323 12.0793 6.17554L8.82731 2.92358C8.68668 2.78589 8.46403 2.78589 8.32633 2.92358ZM3.6359 9.95776C3.47477 9.79663 3.47477 9.53882 3.6359 9.37769L8.14762 4.86597C8.30875 4.70483 8.56657 4.70483 8.7277 4.86597C8.88883 5.0271 8.88883 5.28491 8.7277 5.44605L4.21598 9.95776C4.05485 10.1189 3.79704 10.1189 3.6359 9.95776ZM2.57829 12.4216H3.98454V13.4851L2.09489 13.8162L1.18375 12.905L1.51481 11.0154H2.57829V12.4216Z" fill="white"/>
</g>
<defs>
<clipPath id="clip0_436_1987">
<rect width="15" height="15" fill="white"/>
</clipPath>
</defs>
</svg>
